<?xml version="1.0" encoding="UTF-8"?>
<svg xmlns="http://www.w3.org/2000/svg" id="Solid" viewBox="0 0 512 512" width="512" height="512"><path d="M264,176V152H248v24a8,8,0,0,1-8,8H224v16h16a8,8,0,0,1,8,8v48h16V208a8,8,0,0,1,8-8h16V184H272A8,8,0,0,1,264,176Z"/><path d="M128,168c0-.033,0-.066,0-.1s0-.064,0-.1A120.136,120.136,0,0,1,248,48h16a119.34,119.34,0,0,1,70.491,22.951,7.824,7.824,0,0,1,1.34.981A119.894,119.894,0,0,1,384,168V380.546q7.8.785,16,2.141V168c0-74.991-61.01-136-136-136H248c-74.99,0-136,61.009-136,136V368.749q7.649-.489,16-.667Z"/><path d="M480,428.573c-58.553-33.833-112.648-35.946-148.031-31.632a222.953,222.953,0,0,0-46.515,10.744C308.134,416.841,327.921,424,344,424a8,8,0,0,1,0,16c-21.933,0-47.123-10.321-76.291-22.272C229.124,401.918,185.391,384,136,384c-39.6,0-66.677,6.113-82.416,11.242A117.924,117.924,0,0,0,32,404.421V480H480Z"/><path d="M325.47,296.411a8,8,0,0,1,10.12,5.059l7.063,21.193L368,337.871V168a103.757,103.757,0,0,0-34.179-77.012l-6.393,15.983a8,8,0,0,1-4.9,4.618l-24,8a8,8,0,1,1-5.06-15.178l20.48-6.827,6.7-16.756A103.379,103.379,0,0,0,264,64H248A104.116,104.116,0,0,0,144.019,166.507l30.279,75.7,29.28,14.64a8,8,0,1,1-7.156,14.31l-4.223-2.111-6.36,15.9,18.6,12.4a8,8,0,1,1-8.876,13.312l-24-16a8,8,0,0,1-2.99-9.627l9.266-23.165-13.416-6.709a8,8,0,0,1-3.85-4.184L144,209.541V368.156c45.044,1.66,85.972,16.959,120.177,30.846,8.994-4.184,32.636-13.892,65.854-17.943A243.2,243.2,0,0,1,368,379.45V356.53l-30.76-18.456-11.583,11.583a8,8,0,0,1-8.187,1.932l-24-8a8,8,0,1,1,5.06-15.178l19.309,6.436,9.008-9.008L320.41,306.53A8,8,0,0,1,325.47,296.411ZM304,208a8,8,0,0,1-8,8H280v48a8,8,0,0,1-8,8H240a8,8,0,0,1-8-8V216H216a8,8,0,0,1-8-8V176a8,8,0,0,1,8-8h16V144a8,8,0,0,1,8-8h32a8,8,0,0,1,8,8v24h16a8,8,0,0,1,8,8Z"/></svg>
